<svg xmlns="http://www.w3.org/2000/svg" xmlns:xlink="http://www.w3.org/1999/xlink" width="500" zoomAndPan="magnify" viewBox="0 0 375 374.999991" height="500" preserveAspectRatio="xMidYMid meet" version="1.0"><defs><clipPath id="9da690aaaa"><path d="M 35 37.5 L 340 37.5 L 340 335.25 L 35 335.25 Z M 35 37.5 " clip-rule="nonzero"/></clipPath></defs><g clip-path="url(#9da690aaaa)"><path fill="#006a71" d="M 153.992188 335.304688 C 157.570312 335.289062 160.957031 333.664062 163.203125 330.882812 L 233.21875 244.578125 C 236.125 240.980469 240.414062 238.796875 245.003906 238.484375 C 262.507812 237.335938 269.570312 260.597656 254.378906 269.371094 L 253.617188 269.816406 C 237.246094 279.117188 220.875 288.417969 204.507812 297.71875 C 203.203125 298.453125 202.054688 299.4375 201.109375 300.605469 L 189.136719 315.449219 C 182.828125 323.273438 188.40625 334.910156 198.453125 334.886719 C 215.765625 334.84375 233.082031 334.8125 250.394531 334.769531 C 254.042969 334.769531 257.480469 333.089844 259.742188 330.226562 L 277.296875 307.992188 C 279.507812 305.1875 280.355469 301.53125 279.582031 298.035156 L 255.765625 189.488281 C 254.757812 184.96875 255.734375 180.261719 258.339844 176.472656 C 268.355469 162.070312 290.941406 171.050781 288.335938 188.398438 L 288.203125 189.277344 C 285.265625 207.867188 282.332031 226.46875 279.394531 245.070312 C 279.164062 246.546875 279.207031 248.066406 279.535156 249.523438 L 283.675781 268.140625 C 285.859375 277.949219 298.4375 280.847656 304.6875 272.980469 C 314.675781 260.390625 327.511719 244.234375 336.984375 232.300781 C 339.257812 229.445312 340.09375 225.714844 339.257812 222.164062 L 332.820312 194.582031 C 332.007812 191.097656 329.671875 188.160156 326.464844 186.585938 L 226.742188 137.53125 C 222.582031 135.5 219.507812 131.808594 218.171875 127.402344 C 213.160156 110.597656 234.261719 98.535156 246.195312 111.394531 L 246.800781 112.042969 C 259.515625 125.925781 272.21875 139.828125 284.929688 153.714844 C 285.941406 154.820312 287.152344 155.722656 288.5 156.378906 L 305.640625 164.753906 C 314.667969 169.164062 324.773438 161.128906 322.519531 151.34375 C 318.628906 134.472656 314.742188 117.601562 310.855469 100.730469 C 310.035156 97.179688 307.640625 94.195312 304.34375 92.628906 L 278.761719 80.464844 C 275.53125 78.933594 271.785156 78.925781 268.542969 80.449219 L 168.019531 127.828125 C 163.835938 129.816406 159.027344 129.914062 154.753906 128.214844 C 138.492188 121.664062 142.214844 97.632812 159.710938 96.320312 L 160.585938 96.253906 C 179.367188 94.972656 198.160156 93.703125 216.941406 92.425781 C 218.433594 92.324219 219.902344 91.941406 221.253906 91.300781 L 238.484375 83.125 C 247.5625 78.816406 247.589844 65.910156 238.519531 61.5625 C 222.902344 54.082031 207.285156 46.609375 191.679688 39.128906 C 188.390625 37.554688 184.558594 37.570312 181.289062 39.164062 L 155.828125 51.582031 C 152.613281 53.148438 150.269531 56.074219 149.449219 59.558594 L 123.8125 167.699219 C 122.761719 172.199219 119.832031 176.023438 115.839844 178.300781 C 100.578125 186.929688 84.117188 169.035156 93.992188 154.542969 L 94.484375 153.8125 C 105.195312 138.328125 115.914062 122.851562 126.625 107.367188 C 127.476562 106.136719 128.09375 104.75 128.429688 103.289062 L 132.777344 84.722656 C 135.0625 74.9375 124.992188 66.867188 115.945312 71.246094 C 101.476562 78.25 82.910156 87.25 69.195312 93.882812 C 65.917969 95.476562 63.539062 98.476562 62.75 102.035156 L 56.589844 129.683594 C 55.8125 133.175781 56.640625 136.835938 58.847656 139.648438 L 127.402344 227.109375 C 130.265625 230.742188 131.4375 235.410156 130.726562 239.953125 C 127.953125 257.265625 103.699219 258.980469 98.527344 242.21875 L 98.261719 241.371094 C 92.84375 223.34375 87.414062 205.308594 81.992188 187.28125 C 81.558594 185.847656 80.859375 184.511719 79.933594 183.328125 L 68.121094 168.34375 C 61.898438 160.457031 49.308594 163.300781 47.09375 173.109375 C 43.28125 189.996094 39.464844 206.882812 35.644531 223.773438 C 34.839844 227.332031 35.703125 231.054688 37.988281 233.902344 L 55.761719 255.953125 C 58.011719 258.742188 61.382812 260.375 64.964844 260.398438 L 176.097656 261.328125 C 180.722656 261.351562 185.101562 263.34375 188.210938 266.738281 C 200.019531 279.707031 186.234375 299.734375 169.902344 293.328125 L 169.082031 293.007812 C 151.605469 286.011719 134.128906 279.007812 116.652344 272.003906 C 115.257812 271.449219 113.78125 271.160156 112.28125 271.152344 L 93.203125 271.046875 C 83.15625 270.988281 77.53125 282.609375 83.8125 290.449219 C 94.636719 303.957031 105.457031 317.472656 116.28125 330.992188 C 118.5625 333.835938 122.015625 335.484375 125.664062 335.46875 L 153.992188 335.328125 Z M 122.179688 204.464844 L 131.929688 157.707031 C 132.667969 154.148438 135 151.121094 138.238281 149.480469 L 180.878906 127.945312 C 184.125 126.304688 187.9375 126.230469 191.234375 127.746094 L 234.65625 147.652344 C 237.960938 149.171875 240.394531 152.105469 241.265625 155.632812 L 252.773438 201.988281 C 253.648438 205.515625 252.871094 209.246094 250.65625 212.132812 L 221.582031 250.03125 C 219.367188 252.921875 215.964844 254.632812 212.332031 254.707031 L 164.574219 255.609375 C 160.941406 255.675781 157.46875 254.09375 155.148438 251.289062 L 124.671875 214.511719 C 122.351562 211.714844 121.433594 208.007812 122.179688 204.457031 Z M 122.179688 204.464844 " fill-opacity="1" fill-rule="nonzero"/></g></svg>