
<svg xmlns="http://www.w3.org/2000/svg" viewBox="0 0 500 500" fill="#7c3aed">
  <path d="M250 35C131.928 35 35 131.928 35 250s96.928 215 215 215 215-96.928 215-215S368.072 35 250 35zm0 40c96.649 0 175 78.351 175 175s-78.351 175-175 175-175-78.351-175-175 78.351-175 175-175z"/>
  <path d="M250 130c-15.464 0-28 12.536-28 28v184c0 15.464 12.536 28 28 28s28-12.536 28-28V158c0-15.464-12.536-28-28-28z"/>
  <path d="M342 222H158c-15.464 0-28 12.536-28 28s12.536 28 28 28h184c15.464 0 28-12.536 28-28s-12.536-28-28-28z"/>
</svg>
